<?xml version="1.0" standalone="no"?>
<!DOCTYPE svg PUBLIC "-//W3C//DTD SVG 20010904//EN"
 "http://www.w3.org/TR/2001/REC-SVG-20010904/DTD/svg10.dtd">
<svg version="1.0" xmlns="http://www.w3.org/2000/svg"
 width="256.000000pt" height="256.000000pt" viewBox="0 0 256.000000 256.000000"
 preserveAspectRatio="xMidYMid meet">

<g transform="translate(0.000000,256.000000) scale(0.100000,-0.100000)"
fill="#000000" stroke="none">
<path d="M1015 2439 c-247 -33 -494 -157 -675 -339 -452 -454 -452 -1186 0
-1640 461 -463 1200 -464 1659 -1 138 140 180 223 136 271 -8 9 -193 136 -410
280 -217 145 -395 266 -395 270 0 4 178 125 395 270 217 144 402 271 410 280
44 48 2 131 -136 271 -160 161 -358 270 -579 320 -100 22 -306 32 -405 18z
m330 -174 c113 -20 244 -69 346 -131 79 -48 229 -177 249 -215 9 -17 -34 -48
-397 -290 -225 -149 -418 -281 -430 -292 -31 -28 -31 -86 0 -114 12 -11 205
-143 430 -292 363 -242 406 -273 397 -290 -20 -38 -170 -167 -249 -215 -515
-311 -1175 -109 -1431 437 -68 145 -85 228 -85 417 0 142 3 177 23 250 139
509 631 825 1147 735z"/>
<path d="M1299 1999 c-21 -18 -21 -20 -4 -14 54 20 65 18 65 -8 0 -35 -17 -78
-37 -92 -17 -12 -12 -45 6 -45 19 0 41 32 41 58 0 15 3 44 6 65 6 36 8 37 50
37 41 0 56 -11 34 -25 -5 -3 -10 -31 -10 -61 0 -61 11 -72 57 -56 25 9 26 10
6 11 -21 1 -23 5 -23 66 l0 65 30 0 c17 0 30 5 30 10 0 6 -45 10 -114 10 -101
0 -116 -2 -137 -21z"/>
</g>
</svg>
